<svg width="24" height="24" viewBox="0 0 24 24" fill="none" xmlns="http://www.w3.org/2000/svg">
<path d="M10.5932 12.0066L0.305328 1.71879C-0.0917397 1.33532 -0.102747 0.702587 0.280731 0.305521C0.664211 -0.0915446 1.29694 -0.102555 1.69401 0.280924C1.70232 0.288948 1.71052 0.297147 1.7186 0.305521L12.0065 10.5933L22.2943 0.305463C22.6914 -0.0780162 23.3241 -0.0670062 23.7076 0.33006C24.0817 0.717404 24.0817 1.33145 23.7076 1.71879L13.4198 12.0066L23.7076 22.2944C24.0978 22.6847 24.0978 23.3174 23.7076 23.7077C23.3173 24.0979 22.6846 24.0979 22.2943 23.7077L12.0065 13.4199L1.71866 23.7077C1.32159 24.0912 0.688866 24.0802 0.305387 23.6831C-0.0686646 23.2958 -0.0686646 22.6817 0.305387 22.2944L10.5932 12.0066Z" fill="#BDBDBE"/>
</svg>
